<svg id="Layer_1" data-name="Layer 1" xmlns="http://www.w3.org/2000/svg" viewBox="0 0 3208 2242"><defs><style>.cls-1{fill:#c8e4c0;stroke-width:2px;}.cls-1,.cls-9{stroke:#fff;}.cls-1,.cls-10,.cls-9{stroke-miterlimit:10;}.cls-2{fill:#0a8b44;}.cls-3{fill:#106a38;}.cls-4{fill:#037d3f;}.cls-5{fill:#01753c;}.cls-6{fill:#067b3f;}.cls-7{fill:#038141;opacity:0.99;}.cls-8{fill:#094c26;opacity:0.56;}.cls-10,.cls-9{fill:none;stroke-width:3px;}.cls-10{stroke:#969595;}</style></defs><title>courts</title><path class="cls-1" d="M358.61,973.22c-88.92,123.2-177.83,431.6-36.61,431.69s423.64-21,423.64,88.92,374.17,73.63,370.13,180.68,389,135,391.23,204.71,106.28,106.32,273.92,111.55,592.43-15.69,589.24,57.53,309.38-54.25,383.22-126.49,84.31-348,152.3-340.87,272-188.24,245.81-268.39,15.69-205.26-120.29-205.46-220.89-2.89-301.35-66.93-179.14,24.3-297.16-66.94S2052.41,746,1875,746s-123.11,31.38-349,0S1102.36,636.17,994.6,688.47,697,899.78,572.24,890.88s-255.47-56-234.55,13.17"/><polygon class="cls-2" points="478.94 1096.86 1409.61 833.42 3001.55 1283.62 2319.29 1921.81 478.94 1096.86"/><polygon class="cls-3" points="2084.05 1816.36 2809.54 1229.32 3001.55 1283.62 2330.13 1911.67 2084.05 1816.36"/><polygon class="cls-4" points="1865.81 1718.53 1670.32 1630.9 2489.04 1138.68 2636.1 1186.19 1865.81 1718.53"/><polygon class="cls-5" points="1494.64 1552.15 2341.15 1096.86 2188.98 1054.37 1341.27 1483.4 1494.64 1552.15"/><polygon class="cls-6" points="1041.56 1349.06 1176.28 1409.44 2076.06 1023.49 1952.42 986.93 1041.56 1349.06"/><polygon class="cls-7" points="913.21 1291.52 791.87 1229.32 1725.14 922.65 1820.79 949.7 913.21 1291.52"/><polygon class="cls-8" points="572.24 1138.68 678.23 1186.19 1612.81 890.88 1507 851.13 572.24 1138.68"/><polygon class="cls-9" points="587.25 1096.86 2252.61 1816.36 2883.18 1286.84 1403.76 858.37 587.25 1096.86"/><line class="cls-9" x1="1247.43" y1="1382.08" x2="2029.33" y2="1039.55"/><polyline class="cls-9" points="791.87 1037.09 970.07 1105.89 1439.68 954.46 1266.27 898.53"/><polyline class="cls-9" points="936.71 994.79 989.24 1015.8 1200.08 952.54 1156.32 930.64"/><polyline class="cls-9" points="2421.52 1674.51 2076.06 1537.16 2472.83 1270.73 2789.33 1365.65"/><polyline class="cls-9" points="2539.54 1575.41 2432.69 1533.33 2593.59 1404.91 2699.86 1440.78"/><ellipse class="cls-9" cx="1695.99" cy="1186.19" rx="188.98" ry="69.21"/><path class="cls-9" d="M1131.59,1053.8c108.55,3.43,189.45-7.7,189.81-61.2"/><path class="cls-9" d="M2211.57,1446.17c-50.24-62.92-24.12-104.56,154.46-103.72"/><polyline class="cls-10" points="2533.31 1572.96 2545.67 1382.08 2699.86 1270.73 2693.44 1446.17"/><polyline class="cls-10" points="936.71 994.79 936.71 858.37 1146.41 801.12 1146.41 930.64"/><line class="cls-10" x1="2795" y1="1312.55" x2="2809.54" y2="1464.67"/><polyline class="cls-10" points="2725.55 1552.15 2716.3 1384.82 2616.59 1333.4"/><polyline class="cls-10" points="2739.33 1534.23 2727.51 1373.8 2633.19 1318.87"/><polyline class="cls-10" points="2753.38 1527.48 2744.13 1360.15 2657.46 1301.35"/><polyline class="cls-10" points="2765.88 1506.17 2754.07 1345.73 2671.07 1291.52"/><polyline class="cls-10" points="2777.7 1502.06 2765.88 1341.63 2682.01 1283.62"/><polyline class="cls-10" points="2786.35 1493.83 2774.53 1333.4 2693.27 1275.49"/><polyline class="cls-10" points="2795.23 1485.12 2783.42 1324.69 2699.86 1270.73 2795 1312.55 2666.54 1429.53 2545.67 1382.08"/><line class="cls-10" x1="2562.31" y1="1388.61" x2="2555.68" y2="1572.96"/><line class="cls-10" x1="2578.93" y1="1399.19" x2="2575.06" y2="1572.96"/><line class="cls-10" x1="2606.06" y1="1409.44" x2="2601.22" y2="1575.41"/><line class="cls-10" x1="2633.19" y1="1419.13" x2="2626.41" y2="1580.94"/><line class="cls-10" x1="2646.96" y1="1421.84" x2="2652.57" y2="1595.48"/><polyline class="cls-10" points="2566.28 1367.2 2666.54 1429.53 2674.86 1603.23"/><polyline class="cls-10" points="2578.93 1354.22 2684.02 1413.62 2693.27 1580.94"/><polyline class="cls-10" points="2596.01 1345.73 2699.86 1399.19 2711.68 1559.63"/><polyline class="cls-10" points="2544.59 1398.85 2667.65 1452.68 2797.86 1342.44"/><polyline class="cls-10" points="2543.58 1414.42 2667.65 1472.62 2800.22 1367.2"/><polyline class="cls-10" points="2542.01 1438.69 2670.45 1490.16 2801.89 1384.66"/><polyline class="cls-10" points="2539.81 1472.62 2670.45 1517.96 2802.27 1409.44"/><polyline class="cls-10" points="2538.67 1490.16 2671.07 1540.25 2805.89 1426.55"/><polyline class="cls-10" points="2538.67 1517.96 2672.77 1559.63 2805.89 1442.77"/><polyline class="cls-10" points="2533.31 1534.23 2670.45 1580.94 2809.54 1452.68"/><line class="cls-10" x1="1101.74" y1="813.31" x2="1106.35" y2="916.86"/><line class="cls-10" x1="1079.4" y1="819.41" x2="1087.06" y2="916.86"/><line class="cls-10" x1="1061.1" y1="824.41" x2="1054.56" y2="923.97"/><line class="cls-10" x1="1028.11" y1="833.42" x2="1022.07" y2="930.64"/><line class="cls-10" x1="994.6" y1="842.57" x2="994.6" y2="939.2"/><line class="cls-10" x1="963.24" y1="851.13" x2="957.07" y2="946.31"/><line class="cls-10" x1="879.38" y1="866.14" x2="879.38" y2="992.6"/><line class="cls-10" x1="897.13" y1="863.74" x2="901.22" y2="986.93"/><polyline class="cls-10" points="864.67 868.13 1120.04 808.32 1126.66 923.97"/><line class="cls-10" x1="860.41" y1="939.2" x2="936.71" y2="946.31"/><line class="cls-10" x1="857.56" y1="963.57" x2="936.71" y2="973.22"/><line class="cls-10" x1="1141.89" y1="824.41" x2="1079.8" y2="824.41"/><polyline class="cls-10" points="1141.89 851.13 1081.89 851.13 936.71 882.03 863.83 882.03"/><polyline class="cls-10" points="1141.89 874.19 1081.89 866.14 936.71 898.72 863.83 897.95"/><polyline class="cls-10" points="1141.89 898.72 1084.67 886.42 936.71 916.86 861.75 916.86"/><polyline class="cls-10" points="1141.89 925.33 1087.06 907.72 936.71 951.38 857.56 986.93 864.67 868.13 936.71 858.37"/></svg>