<svg id="Layer_1" data-name="Layer 1" xmlns="http://www.w3.org/2000/svg" viewBox="0 0 3208 2242"><defs><style>.cls-1{fill:#6f90a2;}.cls-2{fill:#edf7fd;stroke:#010101;stroke-width:2px;}.cls-2,.cls-3,.cls-4,.cls-5,.cls-6,.cls-7{stroke-miterlimit:10;}.cls-3,.cls-6,.cls-7{fill:none;}.cls-3,.cls-4,.cls-5{stroke:#ec2428;}.cls-3,.cls-4,.cls-5,.cls-6,.cls-7{stroke-width:3px;}.cls-4,.cls-5{fill:#50c8f4;}.cls-4{opacity:0.45;}.cls-5{opacity:0.46;}.cls-6{stroke:#50c8f4;}.cls-7{stroke:#2999d5;}.cls-8{fill:#ec2428;}</style></defs><title>courts</title><path class="cls-1" d="M764.37,757.76c-202.92,60.13-35.6,480.2-185.12,505.12s-316.84,398.72-124.6,516.2,599.8,14.24,634.54,117.48,241.77,99.68,537,67.64,168.12-66.28,406.1-255.64,70.67-385.84,302.06-385.5,320.4-287.53,270.56-318,35.6-311.74-96.12-311.74-59.75,81.2-252.37-76.88S1919.94,469,1683.91,511.73s-11.74,74.89-264.5,117.54-141,232.26-301.9,215.78S764.37,757.76,764.37,757.76Z"/><path class="cls-2" d="M665.2,1439l987.49-776.3c80-55.87,166.15-57.56,256.15-24.38L2384,870c74.26,51.15,76.29,108.22,37.13,168.67l-968.93,762.07c-93,51-197.35,52.12-308.12,24.38L728.31,1613.78C635.4,1541.48,620.63,1484.45,665.2,1439Z"/><polyline class="cls-3" points="2032.26 789.99 2032.26 741.78 2111.43 781.57 2110.33 829.93"/><path class="cls-3" d="M2032.26,741.78c9.48-8.28,21.15-10.73,36.33-3.77l37,19.88c10.64,4.79,11.3,13.14,5.8,23.68"/><line class="cls-3" x1="2086.98" y1="747.88" x2="2096.31" y2="790.88"/><ellipse class="cls-4" cx="2067.91" cy="821.21" rx="56.3" ry="35.35"/><ellipse class="cls-5" cx="1029.62" cy="1644.24" rx="54.53" ry="33.6"/><polyline class="cls-3" points="987.65 1637.93 987.65 1576.11 1066.66 1616.71 1066.66 1675.11"/><path class="cls-3" d="M1003.71,1670.19l10-62.36c-10.19-2.34-19.84-5.79-26.05-16.41"/><path class="cls-3" d="M1013.7,1607.83q26.49,14.36,53,8.88"/><ellipse class="cls-6" cx="1544.76" cy="1233.04" rx="139.15" ry="90.02"/><line class="cls-7" x1="1021.77" y1="1158.71" x2="1775.01" y2="1546.87"/><line class="cls-7" x1="1314.4" y1="928.66" x2="2078.51" y2="1308.16"/><line class="cls-3" x1="1167.55" y1="1044.11" x2="1932.38" y2="1423.1"/><line class="cls-3" x1="1718.16" y1="629.27" x2="2440.66" y2="998.96"/><line class="cls-3" x1="645.99" y1="1467.16" x2="1374.72" y2="1831.4"/><ellipse class="cls-3" cx="972" cy="1444.32" rx="145.51" ry="91.53"/><ellipse class="cls-3" cx="1359.16" cy="1638.2" rx="145.04" ry="91.33"/><ellipse class="cls-3" cx="1738.84" cy="829.93" rx="136.58" ry="88.15"/><ellipse class="cls-3" cx="2122.73" cy="1017.7" rx="143.34" ry="89.03"/><line class="cls-3" x1="1834.29" y1="892.96" x2="1853.86" y2="908.42"/><line class="cls-3" x1="1861.69" y1="868.25" x2="1881.24" y2="883.18"/><line class="cls-3" x1="1619.33" y1="787.25" x2="1602.25" y2="775.89"/><line class="cls-3" x1="1644.93" y1="765.94" x2="1626.16" y2="750.65"/><line class="cls-3" x1="2220.24" y1="1082.93" x2="2237.19" y2="1097.75"/><line class="cls-3" x1="2246.7" y1="1062.3" x2="2266.08" y2="1077.24"/><line class="cls-3" x1="1995.66" y1="976.51" x2="1979.39" y2="963.64"/><line class="cls-3" x1="2021.42" y1="954.71" x2="1995.66" y2="936.82"/><line class="cls-3" x1="1261.85" y1="1570.53" x2="1238.71" y2="1559.34"/><line class="cls-3" x1="1231.11" y1="1595.32" x2="1207.9" y2="1582.37"/><line class="cls-3" x1="1459.79" y1="1703.96" x2="1475.39" y2="1713.16"/><line class="cls-3" x1="1488.28" y1="1679.83" x2="1504.2" y2="1688.49"/><line class="cls-3" x1="1099.85" y1="1488.01" x2="1117.51" y2="1498.47"/><line class="cls-3" x1="1071.29" y1="1511.19" x2="1089.19" y2="1520.68"/><line class="cls-3" x1="872.17" y1="1377.78" x2="854.01" y2="1366.85"/><line class="cls-3" x1="845.33" y1="1399.29" x2="826.5" y2="1389.88"/><polyline class="cls-3" points="932.16 1444.32 950.94 1453.22 936.66 1467.16"/><polyline class="cls-3" points="959.96 1423.1 978.74 1430.19 996.02 1417.03"/><polyline class="cls-3" points="1010.35 1423.1 992.26 1438.42 1010.35 1447.46"/><polyline class="cls-3" points="950.94 1472.14 963.71 1460.63 980.99 1467.16"/><ellipse class="cls-8" cx="972.73" cy="1445.51" rx="12.77" ry="10.23"/><polyline class="cls-3" points="1314.4 1637.93 1333.18 1646.84 1318.91 1660.77"/><polyline class="cls-3" points="1342.2 1616.71 1360.98 1623.8 1378.26 1610.64"/><polyline class="cls-3" points="1392.6 1616.71 1374.51 1632.03 1392.6 1641.08"/><polyline class="cls-3" points="1333.18 1665.76 1345.95 1654.24 1363.24 1660.77"/><ellipse class="cls-8" cx="1354.97" cy="1639.12" rx="12.77" ry="10.23"/><polyline class="cls-3" points="1698.26 828.75 1717.05 837.65 1702.77 851.59"/><polyline class="cls-3" points="1726.06 807.52 1744.85 814.61 1762.13 801.45"/><polyline class="cls-3" points="1776.46 807.52 1758.37 822.84 1776.46 831.89"/><polyline class="cls-3" points="1717.05 856.57 1729.82 845.05 1747.1 851.59"/><ellipse class="cls-8" cx="1738.84" cy="829.93" rx="12.77" ry="10.23"/><polyline class="cls-3" points="2083.63 1026.25 2102.42 1035.15 2088.14 1049.09"/><polyline class="cls-3" points="2111.43 1005.03 2130.22 1012.12 2147.5 998.96"/><polyline class="cls-3" points="2161.83 1005.03 2143.74 1020.35 2161.83 1029.4"/><polyline class="cls-3" points="2102.42 1054.08 2115.19 1042.56 2132.47 1049.09"/><ellipse class="cls-8" cx="2124.21" cy="1027.44" rx="12.77" ry="10.23"/><ellipse class="cls-8" cx="1475.45" cy="1044.11" rx="12.77" ry="10.23"/><ellipse class="cls-8" cx="1856.85" cy="1236.58" rx="12.77" ry="10.23"/><ellipse class="cls-8" cx="1621.84" cy="1423.1" rx="12.77" ry="10.23"/><ellipse class="cls-8" cx="1241.53" cy="1233.6" rx="12.77" ry="10.23"/></svg>