<svg id="Layer_1" data-name="Layer 1" xmlns="http://www.w3.org/2000/svg" viewBox="0 0 3208 2242"><defs><style>.cls-1{fill:#c9e4c0;}.cls-2{fill:#1ba24a;}.cls-3{fill:#148843;}.cls-4{fill:#a5782b;}.cls-5{fill:none;stroke:#fff;stroke-miterlimit:10;}.cls-6{fill:#fff;}</style></defs><title>courts</title><path class="cls-1" d="M565,945.75c-28.48,231.4,49.84,474.21,0,518.35s-42.72,162.65,81.88,244,486.88,13.72,489.08,99.16,94.78,0,481,0,457.45-256.43,617.64-146,491.28-75.36,441.44-228.11-167.32-21.88-245.64-284.9,106.8-260.11-142.4-315S1973.77,839,1888.83,700.11s-21.19-156.63-291.59-138.83-434,206.47-622.75,160.19-217.24-64.86-334.72,44.11S565,945.75,565,945.75Z"/><path class="cls-2" d="M740.63,1528.84,915.1,792.52C1765,638.9,2288.27,944.09,2493.37,1450.4L956.72,1708.11Z"/><polygon class="cls-3" points="816.67 1591.92 959.7 784.84 1017.95 775.93 900.24 1661.26 816.67 1591.92"/><polygon class="cls-3" points="1017.95 1697.84 1061.71 770.13 1100.89 765.58 1112.13 1682.05 1017.95 1697.84"/><polygon class="cls-3" points="1213.57 1665.04 1310.69 1648.75 1200.34 760.5 1147.72 760.5 1213.57 1665.04"/><polygon class="cls-3" points="1405.67 1632.82 1502.01 1616.66 1286.85 755.18 1245.5 755.18 1405.67 1632.82"/><polygon class="cls-3" points="1591.68 1601.62 1677.3 1587.26 1375.56 753.09 1335.09 752.64 1591.68 1601.62"/><polygon class="cls-3" points="1765.97 1572.39 1845.2 1559.11 1463.71 757.13 1411.94 755.18 1765.97 1572.39"/><polygon class="cls-3" points="1935.09 1544.03 2010.36 1531.41 1547.74 765.18 1504.6 760.5 1935.09 1544.03"/><polygon class="cls-3" points="2092.63 1517.61 2169.72 1504.68 1657.35 780.91 1607.93 773.67 2092.63 1517.61"/><polygon class="cls-3" points="2239.5 1492.98 2305.32 1481.94 1778.37 811.81 1728.49 798.32 2239.5 1492.98"/><polygon class="cls-3" points="2379.97 1469.42 2446.41 1458.28 1899.17 853.75 1845.2 833.29 2379.97 1469.42"/><path class="cls-4" d="M1033.67,1364.47l20.08-425.53c485.52-148.08,889,99.82,889,395.17l-795,109C1065,1601.62,802.9,1484.16,1033.67,1364.47Z"/><path class="cls-3" d="M1075.09,1346.52l7.73-307.76c38-9.9,57.55-24.91,64.9-43.31l382-21.65c17.18,19,40,26.91,68,24.75l140.74,269.1c-38,16.19-49,39.07-48,64.95l-527.37,69.6C1147.91,1376,1118.94,1357.26,1075.09,1346.52Z"/><polygon class="cls-5" points="1061.17 1445.15 1086.65 1464.1 1135.97 1420.33 1108.7 1402.19 1061.17 1445.15"/><polygon class="cls-5" points="1030.65 1428.47 1081.42 1385.37 1056.04 1370.35 1007.27 1410.2 1030.65 1428.47"/><line class="cls-5" x1="1135.97" y1="1420.33" x2="2392.12" y2="1255.83"/><line class="cls-5" x1="1056.04" y1="1370.35" x2="1075.09" y2="760.5"/><line class="cls-5" x1="1468.95" y1="1376.72" x2="1473.27" y2="1391.89"/><line class="cls-5" x1="1794.01" y1="1338.08" x2="1800.82" y2="1353.56"/><polygon class="cls-5" points="1688.42 1455.93 1720.19 1533.4 1888.83 1507.76 1850.05 1430.85 1688.42 1455.93"/><polygon class="cls-5" points="907.28 1006.27 895.64 1078.25 964.97 1075.07 974.5 1001.51 907.28 1006.27"/><rect class="cls-6" x="1071.4" y="994.58" width="20.48" height="10.75"/><polygon class="cls-6" points="1750.68 1317.58 1775.76 1314.51 1785.09 1335.32 1764.05 1338.08 1750.68 1317.58"/><polygon class="cls-6" points="1575.24 961.46 1592.43 961.46 1597.24 967.65 1580.74 967.65 1575.24 961.46"/><ellipse class="cls-4" cx="1369.58" cy="1155.75" rx="63.36" ry="37.38"/><line class="cls-5" x1="1358.47" y1="1148.25" x2="1381.56" y2="1159.3"/><polygon class="cls-6" points="1064.98 1407.83 1081.42 1420.33 1070.85 1430.56 1052.66 1430.56 1052.66 1417.27 1064.98 1407.83"/></svg>