<svg id="Layer_1" data-name="Layer 1" xmlns="http://www.w3.org/2000/svg" viewBox="0 0 3208 2242"><defs><style>.cls-1{fill:#c9e4c0;}.cls-2{fill:#00974e;}.cls-2,.cls-3{stroke:#fff;stroke-miterlimit:10;}.cls-3{fill:none;stroke-width:2px;}</style></defs><title>courts</title><path class="cls-1" d="M868,600.5c-153.67-10.74-167.91,402-235.54,402.1s67.63,71.61,138.83,126.64,281.24-44.79,281.24,140.4S1232.14,1405,1389.76,1526s507.14,99.68,540.65,220.72,194.53,142.4,349,21.36,72.56-299,289.72-288.36S2896.63,1310.5,2740,1151.27s-153.08,48.61-338.2-185.25-18.28-319.31-384.72-330-504.52-85.44-640.18-121-374.18,103.37-406.22,85.5S868,600.5,868,600.5Z"/><polygon class="cls-2" points="785.56 934.72 1414.35 568.16 2584.51 1236.42 1964.18 1602.98 785.56 934.72"/><line class="cls-3" x1="1133.59" y1="731.83" x2="1172.11" y2="754.89"/><line class="cls-3" x1="2279.39" y1="1416.72" x2="2221.24" y2="1381.37"/><line class="cls-3" x1="1358.86" y1="600.5" x2="2528.3" y2="1269.64"/><line class="cls-3" x1="847.63" y1="900.03" x2="2017.07" y2="1569.17"/><line class="cls-3" x1="1462.47" y1="941.17" x2="1893.73" y2="1175.82"/><line class="cls-3" x1="1191" y1="1096.5" x2="1706.36" y2="799.34"/><line class="cls-3" x1="1611.72" y1="1337.23" x2="2127.07" y2="1040.06"/><polyline class="cls-3" points="1314.47 1234.6 1314.47 1151.27 1945.73 774.12 1945.73 874.77"/><line class="cls-3" x1="1314.47" y1="1219.97" x2="1945.73" y2="847.84"/><line class="cls-3" x1="1314.47" y1="1159.91" x2="1945.73" y2="788.12"/><line class="cls-3" x1="1314.47" y1="1167.84" x2="1945.73" y2="796.05"/><line class="cls-3" x1="1314.47" y1="1175.75" x2="1945.73" y2="803.96"/><line class="cls-3" x1="1314.47" y1="1184.96" x2="1945.73" y2="813.17"/><line class="cls-3" x1="1314.47" y1="1193.01" x2="1945.73" y2="821.22"/><line class="cls-3" x1="1314.47" y1="1200.1" x2="1945.73" y2="828.31"/><line class="cls-3" x1="1314.47" y1="1210.21" x2="1945.73" y2="838.42"/><line class="cls-3" x1="1323.17" y1="1146.07" x2="1323.17" y2="1214.84"/><line class="cls-3" x1="1330.8" y1="1141.37" x2="1330.8" y2="1210.14"/><line class="cls-3" x1="1336.05" y1="1141.37" x2="1336.05" y2="1210.14"/><line class="cls-3" x1="1341.21" y1="1133.94" x2="1341.21" y2="1202.71"/><line class="cls-3" x1="1348.84" y1="1129.24" x2="1348.84" y2="1198.01"/><line class="cls-3" x1="1354.08" y1="1129.24" x2="1354.08" y2="1198.01"/><line class="cls-3" x1="1358.86" y1="1125.3" x2="1358.86" y2="1194.07"/><line class="cls-3" x1="1366.49" y1="1120.6" x2="1366.49" y2="1189.37"/><line class="cls-3" x1="1376.89" y1="1113.17" x2="1376.89" y2="1181.94"/><line class="cls-3" x1="1384.52" y1="1108.47" x2="1384.52" y2="1177.24"/><line class="cls-3" x1="1389.76" y1="1108.47" x2="1389.76" y2="1177.24"/><line class="cls-3" x1="1394.96" y1="1103.27" x2="1394.96" y2="1172.04"/><line class="cls-3" x1="1402.58" y1="1098.57" x2="1402.58" y2="1167.34"/><line class="cls-3" x1="1412.99" y1="1091.14" x2="1412.99" y2="1159.91"/><line class="cls-3" x1="1420.62" y1="1086.44" x2="1420.62" y2="1155.21"/><line class="cls-3" x1="1425.86" y1="1086.44" x2="1425.86" y2="1155.21"/><line class="cls-3" x1="1430.64" y1="1082.5" x2="1430.64" y2="1151.27"/><line class="cls-3" x1="1438.27" y1="1077.8" x2="1438.27" y2="1146.57"/><line class="cls-3" x1="1448.67" y1="1070.37" x2="1448.67" y2="1139.14"/><line class="cls-3" x1="1456.3" y1="1065.67" x2="1456.3" y2="1134.44"/><line class="cls-3" x1="1461.55" y1="1065.67" x2="1461.55" y2="1134.44"/><line class="cls-3" x1="1469.84" y1="1058.5" x2="1469.84" y2="1127.27"/><line class="cls-3" x1="1475.09" y1="1058.5" x2="1475.09" y2="1127.27"/><line class="cls-3" x1="1479.86" y1="1054.55" x2="1479.86" y2="1123.32"/><line class="cls-3" x1="1487.49" y1="1049.85" x2="1487.49" y2="1118.62"/><line class="cls-3" x1="1497.9" y1="1042.42" x2="1497.9" y2="1111.19"/><line class="cls-3" x1="1505.53" y1="1037.72" x2="1505.53" y2="1106.5"/><line class="cls-3" x1="1510.77" y1="1037.72" x2="1510.77" y2="1106.5"/><line class="cls-3" x1="1517.56" y1="1030.55" x2="1517.56" y2="1099.32"/><line class="cls-3" x1="1522.8" y1="1030.55" x2="1522.8" y2="1099.32"/><line class="cls-3" x1="1527.58" y1="1026.6" x2="1527.58" y2="1095.38"/><line class="cls-3" x1="1535.21" y1="1021.91" x2="1535.21" y2="1090.68"/><line class="cls-3" x1="1545.61" y1="1014.48" x2="1545.61" y2="1083.25"/><line class="cls-3" x1="1553.24" y1="1009.78" x2="1553.24" y2="1078.55"/><line class="cls-3" x1="1558.49" y1="1009.78" x2="1558.49" y2="1078.55"/><line class="cls-3" x1="1564.45" y1="1002.6" x2="1564.45" y2="1071.38"/><line class="cls-3" x1="1569.69" y1="1002.6" x2="1569.69" y2="1071.38"/><line class="cls-3" x1="1574.47" y1="998.66" x2="1574.47" y2="1067.43"/><line class="cls-3" x1="1582.09" y1="993.96" x2="1582.09" y2="1062.73"/><line class="cls-3" x1="1592.5" y1="986.53" x2="1592.5" y2="1055.3"/><line class="cls-3" x1="1600.13" y1="981.83" x2="1600.13" y2="1050.6"/><line class="cls-3" x1="1605.37" y1="981.83" x2="1605.37" y2="1050.6"/><line class="cls-3" x1="1613.14" y1="974.66" x2="1613.14" y2="1043.43"/><line class="cls-3" x1="1618.39" y1="974.66" x2="1618.39" y2="1043.43"/><line class="cls-3" x1="1623.16" y1="970.71" x2="1623.16" y2="1039.49"/><line class="cls-3" x1="1630.79" y1="966.02" x2="1630.79" y2="1034.79"/><line class="cls-3" x1="1641.2" y1="958.59" x2="1641.2" y2="1027.36"/><line class="cls-3" x1="1648.83" y1="953.89" x2="1648.83" y2="1022.66"/><line class="cls-3" x1="1654.07" y1="953.89" x2="1654.07" y2="1022.66"/><line class="cls-3" x1="1660.45" y1="945.43" x2="1660.45" y2="1014.2"/><line class="cls-3" x1="1665.7" y1="945.43" x2="1665.7" y2="1014.2"/><line class="cls-3" x1="1670.47" y1="941.49" x2="1670.47" y2="1010.26"/><line class="cls-3" x1="1678.1" y1="936.79" x2="1678.1" y2="1005.56"/><line class="cls-3" x1="1688.51" y1="929.36" x2="1688.51" y2="998.13"/><line class="cls-3" x1="1696.14" y1="924.66" x2="1696.14" y2="993.43"/><line class="cls-3" x1="1701.38" y1="924.66" x2="1701.38" y2="993.43"/><line class="cls-3" x1="1709" y1="917.49" x2="1709" y2="986.26"/><line class="cls-3" x1="1714.24" y1="917.49" x2="1714.24" y2="986.26"/><line class="cls-3" x1="1719.02" y1="913.54" x2="1719.02" y2="982.31"/><line class="cls-3" x1="1726.65" y1="908.84" x2="1726.65" y2="977.61"/><line class="cls-3" x1="1737.05" y1="901.41" x2="1737.05" y2="970.18"/><line class="cls-3" x1="1744.68" y1="896.71" x2="1744.68" y2="965.49"/><line class="cls-3" x1="1749.93" y1="896.71" x2="1749.93" y2="965.49"/><line class="cls-3" x1="1756.97" y1="887.47" x2="1756.97" y2="956.24"/><line class="cls-3" x1="1762.21" y1="887.47" x2="1762.21" y2="956.24"/><line class="cls-3" x1="1766.99" y1="883.53" x2="1766.99" y2="952.3"/><line class="cls-3" x1="1774.62" y1="878.83" x2="1774.62" y2="947.6"/><line class="cls-3" x1="1785.02" y1="871.4" x2="1785.02" y2="940.17"/><line class="cls-3" x1="1792.65" y1="866.7" x2="1792.65" y2="935.47"/><line class="cls-3" x1="1797.9" y1="866.7" x2="1797.9" y2="935.47"/><line class="cls-3" x1="1801.78" y1="859.53" x2="1801.78" y2="928.3"/><line class="cls-3" x1="1807.02" y1="859.53" x2="1807.02" y2="928.3"/><line class="cls-3" x1="1811.8" y1="855.58" x2="1811.8" y2="924.35"/><line class="cls-3" x1="1819.43" y1="850.88" x2="1819.43" y2="919.65"/><line class="cls-3" x1="1829.84" y1="843.45" x2="1829.84" y2="912.22"/><line class="cls-3" x1="1837.46" y1="838.75" x2="1837.46" y2="907.53"/><line class="cls-3" x1="1842.71" y1="838.75" x2="1842.71" y2="907.53"/><line class="cls-3" x1="1847.42" y1="833.95" x2="1847.42" y2="902.72"/><line class="cls-3" x1="1852.67" y1="833.95" x2="1852.67" y2="902.72"/><line class="cls-3" x1="1857.44" y1="830" x2="1857.44" y2="898.77"/><line class="cls-3" x1="1865.07" y1="825.3" x2="1865.07" y2="894.07"/><line class="cls-3" x1="1875.48" y1="817.87" x2="1875.48" y2="886.64"/><line class="cls-3" x1="1883.11" y1="813.17" x2="1883.11" y2="881.95"/><line class="cls-3" x1="1888.35" y1="813.17" x2="1888.35" y2="881.95"/><line class="cls-3" x1="1894.72" y1="806" x2="1894.72" y2="874.77"/><line class="cls-3" x1="1899.97" y1="806" x2="1899.97" y2="874.77"/><line class="cls-3" x1="1904.74" y1="802.05" x2="1904.74" y2="870.83"/><line class="cls-3" x1="1912.37" y1="797.36" x2="1912.37" y2="866.13"/><line class="cls-3" x1="1922.78" y1="789.93" x2="1922.78" y2="858.7"/><line class="cls-3" x1="1930.41" y1="785.23" x2="1930.41" y2="854"/><line class="cls-3" x1="1935.65" y1="785.23" x2="1935.65" y2="854"/></svg>