<?xml version="1.0" encoding="utf-8"?>
<!-- Generator: Adobe Illustrator 22.1.0, SVG Export Plug-In . SVG Version: 6.00 Build 0)  -->
<svg version="1.1" id="Layer_1" xmlns="http://www.w3.org/2000/svg" xmlns:xlink="http://www.w3.org/1999/xlink" x="0px" y="0px"
	 viewBox="0 0 3208 2242" style="enable-background:new 0 0 3208 2242;" xml:space="preserve">
<style type="text/css">
	.st0{fill:#C8E4C0;}
	.st1{fill:#0A8B44;}
	.st2{fill:#106A38;}
	.st3{fill:#037D3F;}
	.st4{fill:#01753C;}
	.st5{fill:#067B3F;}
	.st6{opacity:0.99;fill:#038141;enable-background:new    ;}
	.st7{opacity:0.56;fill:#094C26;enable-background:new    ;}
	.st8{fill:none;stroke:#FFFFFF;stroke-width:4;stroke-miterlimit:10;}
	.st9{fill:#FFFFFF;}
	.st10{font-family:'Arial-Black';}
	.st11{font-size:71.2436px;}
	.st12{letter-spacing:-1.1;}
	.st13{font-size:21.8277px;}
	.st14{letter-spacing:-0.4;}
	.st15{fill:none;stroke:#FFCD19;stroke-width:4;stroke-miterlimit:10;}
</style>
<title>courts</title>
<path class="st0" d="M2566.3,670.2c39.3,41.6,141,79,235.7,99.9s11.5,171.2,124.9,186.8c113.4,15.6,200.3,32.6,79.3,131.8
	s-366.6,19.1-366.6,191.4s0.1,196.2-162.5,227.8c-162.6,31.5-291-78.1-378,95.8c-87,173.8-112.5,182.3-252.8,178.1
	s-518.1-36.7-525.7,32.4s-196.6,84.2-313.7,91.8s-234.2-63.3-338.2-124.2s73.7-241.1-104-273.9s-294.8-118.8-268.3-240.2
	s-60.5-153.9,37.8-213.2c98.3-59.3-185.2,100,189-60.9s432.3-243.4,596-202.2s145.6,87.5,389-24.5s299.7-149.7,477.5-96.8
	s155.5,133,327.3,57.1S2566.3,670.2,2566.3,670.2z"/>
<polygon class="st1" points="2895.3,999.4 1964.6,736 372.6,1186.2 1054.9,1824.3 "/>
<polygon class="st2" points="1290.1,1718.9 564.7,1131.9 372.6,1186.2 1044.1,1814.2 "/>
<polygon class="st3" points="1508.4,1621.1 1703.9,1533.4 885.2,1041.2 738.1,1088.7 "/>
<polygon class="st4" points="1879.6,1454.7 1033,999.4 1185.2,956.9 2032.9,1385.9 "/>
<polygon class="st5" points="2332.6,1251.6 2197.9,1312 1298.1,926 1421.8,889.5 "/>
<polygon class="st6" points="2461,1194.1 2582.3,1131.9 1649.1,825.2 1553.4,852.2 "/>
<polygon class="st7" points="2802,1041.2 2696,1088.7 1761.4,793.4 1867.2,753.7 "/>
<polygon class="st8" points="2802,994.7 1052.8,1781.8 421.4,1194.1 1954.4,753.7 "/>
<line class="st8" x1="1985.6" y1="1362" x2="1207.6" y2="968.2"/>
<line class="st8" x1="1897.1" y1="1401.8" x2="1119.2" y2="993.6"/>
<line class="st8" x1="1787.5" y1="1451.2" x2="1033" y2="1023.5"/>
<line class="st8" x1="1661.4" y1="1507.9" x2="907.2" y2="1054.5"/>
<line class="st8" x1="1520.3" y1="1571.4" x2="798.8" y2="1088.7"/>
<line class="st8" x1="1399.9" y1="1625.6" x2="676.1" y2="1120.9"/>
<line class="st8" x1="1255.3" y1="1690.7" x2="583.8" y2="1147.4"/>
<line class="st8" x1="2067.9" y1="1325" x2="1320.7" y2="935.7"/>
<line class="st8" x1="2167.5" y1="1280.1" x2="1440.7" y2="901.2"/>
<line class="st8" x1="2281.7" y1="1228.8" x2="1553.4" y2="868.9"/>
<line class="st8" x1="2392.1" y1="1179.1" x2="1675.4" y2="833.8"/>
<line class="st8" x1="2477.2" y1="1140.8" x2="1770.2" y2="806.6"/>
<line class="st8" x1="2566.3" y1="1100.7" x2="1846.4" y2="784.7"/>
<line class="st8" x1="2698.5" y1="1041.2" x2="1897.1" y2="770.1"/>
<text transform="matrix(0.68 0.58 0.65 -0.76 668.7722 1281.3414)" class="st9 st10 st11 st12">T</text>
<text transform="matrix(0.68 0.58 0.65 -0.76 702.1055 1309.7727)" class="st9 st10 st11">OUCH D</text>
<text transform="matrix(0.68 0.58 0.65 -0.76 914.694 1491.0981)" class="st9 st10 st11 st12">O</text>
<text transform="matrix(0.68 0.58 0.65 -0.76 954.2204 1524.8145)" class="st9 st10 st11">WN</text>
<text transform="matrix(-2.2685 -0.7127 -0.3011 0.9536 2506.1711 942.6911)" class="st9 st10 st13 st14">T</text>
<text transform="matrix(-2.2685 -0.7127 -0.3011 0.9536 2472.113 931.9915)" class="st9 st10 st13">OUCH D</text>
<text transform="matrix(-2.2685 -0.7127 -0.3011 0.9536 2254.8601 863.7394)" class="st9 st10 st13 st14">O</text>
<text transform="matrix(-2.2685 -0.7127 -0.3011 0.9536 2214.4731 851.0515)" class="st9 st10 st13">WN</text>
<polyline class="st15" points="721.1,1473 728,1362 831.4,1392.9 840.6,1325 "/>
<polyline class="st15" points="728,1362 668.8,1338.2 668.8,1281.3 "/>
<polyline class="st15" points="2312.9,855.6 2312.9,766.3 2392.1,778.3 2392.1,727.2 "/>
<polyline class="st15" points="2312.9,767 2254.1,767 2254.1,707.6 "/>
</svg>
