<?xml version="1.0" encoding="utf-8"?>
<!-- Generator: Adobe Illustrator 22.1.0, SVG Export Plug-In . SVG Version: 6.00 Build 0)  -->
<svg version="1.1" id="Layer_1" xmlns="http://www.w3.org/2000/svg" xmlns:xlink="http://www.w3.org/1999/xlink" x="0px" y="0px"
	 viewBox="0 0 3208 2242" style="enable-background:new 0 0 3208 2242;" xml:space="preserve">
<style type="text/css">
	.st0{fill:#D4B69C;}
	.st1{fill:#C67E46;stroke:#FFFFFF;stroke-miterlimit:10;}
	.st2{fill:none;stroke:#FFFFFF;stroke-width:2;stroke-miterlimit:10;}
	.st3{opacity:0.51;fill:#010101;}
	.st4{opacity:0.47;fill:#010101;}
	.st5{fill:none;stroke:#010101;stroke-miterlimit:10;}
	.st6{fill:#A0A783;}
	.st7{fill:#9A9C84;}
	.st8{fill:none;stroke:#FFFFFF;stroke-miterlimit:10;}
	.st9{fill:none;stroke:#231F20;stroke-width:0.75;stroke-miterlimit:10;}
</style>
<title>courts</title>
<path class="st0" d="M680,687.2c-250.3,57-218.2,154.8-243.2,271.4s-142.4,257.8,96.1,322.5s367.5-45,374.2,132.7
	s102.8,206.1,259.5,216.8s458.2-60.5,480,53.4s121.6,227.8,292.5,160.2s260.4-267,431-249.2s113.7-79.8,209.8-55.9
	s131.7-6.7,74.8-133.8s-128.2-64.7-167.3-224.1s64.1-59.6-206.5-178.9s-359.8-19.6-406-190.5s99.8-109.9-120.9-167.1
	s-167.3-11.8-331.1-77.2s-76.9-91.8-274.1-76.1s-167.3,159-338.2,131.1S680,687.2,680,687.2z"/>
<polygon class="st1" points="624.5,991 1256.6,622.5 2432.8,1294.2 1809.3,1662.7 "/>
<polyline class="st2" points="851.4,858.7 1086.5,1002.3 1279.3,889 1031,754 "/>
<polyline class="st2" points="2018.5,1539.1 1780.9,1399.1 1970.8,1288.6 2200.1,1431.8 "/>
<line class="st2" x1="1211.7" y1="1323.9" x2="1845.2" y2="958.7"/>
<ellipse class="st2" cx="1525.9" cy="1141.8" rx="120.8" ry="70.5"/>
<ellipse class="st2" cx="1185.7" cy="940.2" rx="103.9" ry="62.1"/>
<ellipse class="st2" cx="1875" cy="1343.2" rx="103.9" ry="62.1"/>
<path class="st2" d="M680,958.7l202.3,112.7c161.1,40.8,316.9,31.1,465.8-43.4c106.2-74.6,140.2-163.8,19.6-284.4l-155.9-94.8"/>
<path class="st2" d="M1845.2,1630.6l-157.6-91.5c-111.8-82.8-97.8-174,26.7-283.6c153.9-93,317.1-83.6,485.8-21.3l170.1,97.1"/>
<polygon class="st3" points="2110.7,1515 2172.9,1548.8 2222.7,1548.8 2222.7,1515 2166.7,1475.9 "/>
<polygon class="st4" points="900.1,795 851.4,768.4 839.6,734.6 882.3,724 951.6,759.5 "/>
<path class="st5" d="M2155.1,1512.4v-249.8c0.4-29.3-21.3-49.8-65.2-61.3"/>
<polygon class="st6" points="1990.5,1161.3 2122.5,1081.3 2122.5,1201.3 1990.9,1281.2 "/>
<path class="st5" d="M907.2,775.5V539.1c5.9-30.2,23.7-33.2,53.3-8.9"/>
<polygon class="st7" points="1081.8,446.6 1081.8,572.8 951.6,629.7 951.6,507.1 "/>
<polygon class="st8" points="967.6,523.1 1065.3,475.1 1065.3,567.5 967.6,604.8 "/>
<ellipse class="st9" cx="1049.1" cy="586.2" rx="32.7" ry="18.7"/>
</svg>
