<svg id="Layer_1" data-name="Layer 1" xmlns="http://www.w3.org/2000/svg" viewBox="0 0 3208 2242"><defs><style>.cls-1{fill:#d4b69c;}.cls-2{fill:#d6a456;}.cls-2,.cls-3{stroke:#fff;}.cls-2,.cls-3,.cls-4,.cls-5{stroke-miterlimit:10;}.cls-3,.cls-4,.cls-5{fill:none;}.cls-3{stroke-width:2px;}.cls-4,.cls-5{stroke:#626364;}.cls-5{stroke-width:0.5px;}</style></defs><title>courts</title><path class="cls-1" d="M945.75,569.73c134.72-154.52,91.59-95.54,384.22,0,273.16,89.18,101.58-91.36,360.79,135.28,167.49,146.43,145,14.24,255.35,107.57s85.44,102.47,302.6,165,167.32,165.26,299,279.61,199.36,42.29,131.72,227.41-181.56,242.07-320.4,245.63-338.2,185.12-529,188.68-368.13,10.68-488.36-174.44-221.53-49.84-371.79-259.87-323.21-57-358.81-252.08S379.72,1050.33,436.68,894,507.88,769.09,589.76,705C694.05,748.34,849.07,680.63,945.75,569.73Z"/><polygon class="cls-2" points="559.58 1010.96 1264.31 600.13 2575.8 1349.1 1880.55 1759.93 559.58 1010.96"/><line class="cls-3" x1="969.93" y1="1246.28" x2="1676.21" y2="839.02"/><line class="cls-3" x1="1349.06" y1="1460.87" x2="2055.34" y2="1053.61"/><polyline class="cls-4" points="1134.6 1336.99 1134.6 1180.03 1847.38 756.17 1847.38 933.11"/><line class="cls-4" x1="1134.6" y1="1257.24" x2="1847.38" y2="839.02"/><line class="cls-5" x1="1134.6" y1="1189.74" x2="1847.38" y2="771.9"/><line class="cls-5" x1="1134.6" y1="1198.66" x2="1847.38" y2="780.82"/><line class="cls-5" x1="1134.6" y1="1207.55" x2="1847.38" y2="789.71"/><line class="cls-5" x1="1134.6" y1="1217.9" x2="1847.38" y2="800.06"/><line class="cls-5" x1="1134.6" y1="1226.95" x2="1847.38" y2="809.1"/><line class="cls-5" x1="1134.6" y1="1234.91" x2="1847.38" y2="817.07"/><line class="cls-5" x1="1134.6" y1="1246.28" x2="1847.38" y2="828.44"/><line class="cls-5" x1="1144.43" y1="1174.19" x2="1144.43" y2="1251.48"/><line class="cls-5" x1="1153.04" y1="1168.91" x2="1153.04" y2="1246.2"/><line class="cls-5" x1="1158.96" y1="1168.91" x2="1158.96" y2="1246.2"/><line class="cls-5" x1="1164.79" y1="1160.56" x2="1164.79" y2="1237.85"/><line class="cls-5" x1="1173.4" y1="1155.28" x2="1173.4" y2="1232.57"/><line class="cls-5" x1="1179.32" y1="1155.28" x2="1179.32" y2="1232.57"/><line class="cls-5" x1="1184.72" y1="1150.84" x2="1184.72" y2="1228.13"/><line class="cls-5" x1="1193.33" y1="1145.56" x2="1193.33" y2="1222.85"/><line class="cls-5" x1="1205.08" y1="1137.21" x2="1205.08" y2="1214.5"/><line class="cls-5" x1="1213.7" y1="1131.93" x2="1213.7" y2="1209.22"/><line class="cls-5" x1="1219.62" y1="1131.93" x2="1219.62" y2="1209.22"/><line class="cls-5" x1="1225.48" y1="1126.09" x2="1225.48" y2="1203.38"/><line class="cls-5" x1="1234.09" y1="1120.81" x2="1234.09" y2="1198.1"/><line class="cls-5" x1="1245.84" y1="1112.46" x2="1245.84" y2="1189.75"/><line class="cls-5" x1="1254.46" y1="1107.18" x2="1254.46" y2="1184.47"/><line class="cls-5" x1="1260.38" y1="1107.18" x2="1260.38" y2="1184.47"/><line class="cls-5" x1="1265.77" y1="1102.74" x2="1265.77" y2="1180.03"/><line class="cls-5" x1="1274.38" y1="1097.46" x2="1274.38" y2="1174.75"/><line class="cls-5" x1="1286.13" y1="1089.11" x2="1286.13" y2="1166.4"/><line class="cls-5" x1="1294.75" y1="1083.83" x2="1294.75" y2="1161.12"/><line class="cls-5" x1="1300.67" y1="1083.83" x2="1300.67" y2="1161.12"/><line class="cls-5" x1="1310.04" y1="1075.77" x2="1310.04" y2="1153.06"/><line class="cls-5" x1="1315.96" y1="1075.77" x2="1315.96" y2="1153.06"/><line class="cls-5" x1="1321.35" y1="1071.33" x2="1321.35" y2="1148.63"/><line class="cls-5" x1="1329.97" y1="1066.05" x2="1329.97" y2="1143.34"/><line class="cls-5" x1="1341.72" y1="1057.7" x2="1341.72" y2="1134.99"/><line class="cls-5" x1="1350.33" y1="1052.42" x2="1350.33" y2="1129.71"/><line class="cls-5" x1="1356.25" y1="1052.42" x2="1356.25" y2="1129.71"/><line class="cls-5" x1="1363.92" y1="1044.36" x2="1363.92" y2="1121.65"/><line class="cls-5" x1="1369.84" y1="1044.36" x2="1369.84" y2="1121.65"/><line class="cls-5" x1="1375.23" y1="1039.93" x2="1375.23" y2="1117.22"/><line class="cls-5" x1="1383.84" y1="1034.65" x2="1383.84" y2="1111.94"/><line class="cls-5" x1="1395.59" y1="1026.3" x2="1395.59" y2="1103.59"/><line class="cls-5" x1="1404.21" y1="1021.02" x2="1404.21" y2="1098.31"/><line class="cls-5" x1="1410.13" y1="1021.02" x2="1410.13" y2="1098.31"/><line class="cls-5" x1="1416.86" y1="1012.96" x2="1416.86" y2="1090.25"/><line class="cls-5" x1="1422.78" y1="1012.96" x2="1422.78" y2="1090.25"/><line class="cls-5" x1="1428.17" y1="1008.52" x2="1428.17" y2="1085.81"/><line class="cls-5" x1="1436.79" y1="1003.24" x2="1436.79" y2="1080.53"/><line class="cls-5" x1="1448.54" y1="994.89" x2="1448.54" y2="1072.18"/><line class="cls-5" x1="1457.15" y1="989.61" x2="1457.15" y2="1066.9"/><line class="cls-5" x1="1463.07" y1="989.61" x2="1463.07" y2="1066.9"/><line class="cls-5" x1="1471.84" y1="981.55" x2="1471.84" y2="1058.84"/><line class="cls-5" x1="1477.76" y1="981.55" x2="1477.76" y2="1058.84"/><line class="cls-5" x1="1483.16" y1="977.11" x2="1483.16" y2="1054.4"/><line class="cls-5" x1="1491.77" y1="971.83" x2="1491.77" y2="1049.12"/><line class="cls-5" x1="1503.52" y1="963.48" x2="1503.52" y2="1040.77"/><line class="cls-5" x1="1512.13" y1="958.2" x2="1512.13" y2="1035.49"/><line class="cls-5" x1="1518.06" y1="958.2" x2="1518.06" y2="1035.49"/><line class="cls-5" x1="1525.26" y1="948.7" x2="1525.26" y2="1025.99"/><line class="cls-5" x1="1531.18" y1="948.7" x2="1531.18" y2="1025.99"/><line class="cls-5" x1="1536.58" y1="944.27" x2="1536.58" y2="1021.56"/><line class="cls-5" x1="1545.19" y1="938.99" x2="1545.19" y2="1016.28"/><line class="cls-5" x1="1556.94" y1="930.64" x2="1556.94" y2="1007.93"/><line class="cls-5" x1="1565.55" y1="925.36" x2="1565.55" y2="1002.65"/><line class="cls-5" x1="1571.48" y1="925.36" x2="1571.48" y2="1002.65"/><line class="cls-5" x1="1580.08" y1="917.29" x2="1580.08" y2="994.58"/><line class="cls-5" x1="1586" y1="917.29" x2="1586" y2="994.58"/><line class="cls-5" x1="1591.39" y1="912.86" x2="1591.39" y2="990.15"/><line class="cls-5" x1="1600.01" y1="907.58" x2="1600.01" y2="984.87"/><line class="cls-5" x1="1611.76" y1="899.23" x2="1611.76" y2="976.52"/><line class="cls-5" x1="1620.37" y1="893.95" x2="1620.37" y2="971.24"/><line class="cls-5" x1="1626.29" y1="893.95" x2="1626.29" y2="971.24"/><line class="cls-5" x1="1634.24" y1="883.56" x2="1634.24" y2="960.85"/><line class="cls-5" x1="1640.17" y1="883.56" x2="1640.17" y2="960.85"/><line class="cls-5" x1="1645.56" y1="879.13" x2="1645.56" y2="956.42"/><line class="cls-5" x1="1654.17" y1="873.85" x2="1654.17" y2="951.14"/><line class="cls-5" x1="1665.92" y1="865.5" x2="1665.92" y2="942.79"/><line class="cls-5" x1="1674.54" y1="860.22" x2="1674.54" y2="937.51"/><line class="cls-5" x1="1680.46" y1="860.22" x2="1680.46" y2="937.51"/><line class="cls-5" x1="1684.84" y1="852.15" x2="1684.84" y2="929.44"/><line class="cls-5" x1="1690.76" y1="852.15" x2="1690.76" y2="929.44"/><line class="cls-5" x1="1696.16" y1="847.72" x2="1696.16" y2="925.01"/><line class="cls-5" x1="1704.77" y1="842.44" x2="1704.77" y2="919.73"/><line class="cls-5" x1="1716.52" y1="834.09" x2="1716.52" y2="911.38"/><line class="cls-5" x1="1725.14" y1="828.81" x2="1725.14" y2="906.1"/><line class="cls-5" x1="1731.06" y1="828.81" x2="1731.06" y2="906.1"/><line class="cls-5" x1="1736.38" y1="823.41" x2="1736.38" y2="900.7"/><line class="cls-5" x1="1742.3" y1="823.41" x2="1742.3" y2="900.7"/><line class="cls-5" x1="1747.69" y1="818.97" x2="1747.69" y2="896.26"/><line class="cls-5" x1="1756.31" y1="813.69" x2="1756.31" y2="890.98"/><line class="cls-5" x1="1768.06" y1="805.34" x2="1768.06" y2="882.63"/><line class="cls-5" x1="1776.67" y1="800.06" x2="1776.67" y2="877.35"/><line class="cls-5" x1="1782.59" y1="800.06" x2="1782.59" y2="877.35"/><line class="cls-5" x1="1789.79" y1="792" x2="1789.79" y2="869.29"/><line class="cls-5" x1="1795.71" y1="792" x2="1795.71" y2="869.29"/><line class="cls-5" x1="1801.1" y1="787.56" x2="1801.1" y2="864.85"/><line class="cls-5" x1="1809.72" y1="782.28" x2="1809.72" y2="859.57"/><line class="cls-5" x1="1821.47" y1="773.93" x2="1821.47" y2="851.22"/><line class="cls-5" x1="1830.08" y1="768.65" x2="1830.08" y2="845.94"/><line class="cls-5" x1="1836" y1="768.65" x2="1836" y2="845.94"/></svg>